<?xml version="1.0" encoding="UTF-8" standalone="no"?>
<!-- Created with Inkscape (http://www.inkscape.org/) -->

<svg
   xmlns:dc="http://purl.org/dc/elements/1.1/"
   xmlns:cc="http://creativecommons.org/ns#"
   xmlns:rdf="http://www.w3.org/1999/02/22-rdf-syntax-ns#"
   xmlns:svg="http://www.w3.org/2000/svg"
   xmlns="http://www.w3.org/2000/svg"
   xmlns:sodipodi="http://sodipodi.sourceforge.net/DTD/sodipodi-0.dtd"
   xmlns:inkscape="http://www.inkscape.org/namespaces/inkscape"
   version="1.1"
   id="svg2"
   xml:space="preserve"
   width="377.952"
   height="127.382"
   viewBox="0 0 377.952 127.382"
   sodipodi:docname="chaotikumlogo-white.svg"
   inkscape:version="0.92.2 5c3e80d, 2017-08-06"><metadata
     id="metadata8"><rdf:RDF><cc:Work
         rdf:about=""><dc:format>image/svg+xml</dc:format><dc:type
           rdf:resource="http://purl.org/dc/dcmitype/StillImage" /><dc:title /></cc:Work></rdf:RDF></metadata><defs
     id="defs6"><clipPath
       clipPathUnits="userSpaceOnUse"
       id="clipPath66"><path
         d="M 0,0.001 H 283.464 V 95.537 H 0 Z"
         id="path64"
         inkscape:connector-curvature="0" /></clipPath><clipPath
       clipPathUnits="userSpaceOnUse"
       id="clipPath78"><path
         d="M 100.328,37.74 H 282.069 V 72.369 H 100.328 Z"
         id="path76"
         inkscape:connector-curvature="0" /></clipPath><clipPath
       clipPathUnits="userSpaceOnUse"
       id="clipPath116"><path
         d="M 0,0.001 H 283.464 V 95.537 H 0 Z"
         id="path114"
         inkscape:connector-curvature="0" /></clipPath></defs><sodipodi:namedview
     pagecolor="#ffffff"
     bordercolor="#666666"
     borderopacity="1"
     objecttolerance="10"
     gridtolerance="10"
     guidetolerance="10"
     inkscape:pageopacity="0"
     inkscape:pageshadow="2"
     inkscape:window-width="1496"
     inkscape:window-height="827"
     id="namedview4"
     showgrid="false"
     inkscape:zoom="1.0742105"
     inkscape:cx="188.976"
     inkscape:cy="63.691002"
     inkscape:window-x="0"
     inkscape:window-y="0"
     inkscape:window-maximized="0"
     inkscape:current-layer="g10" /><g
     id="g10"
     inkscape:groupmode="layer"
     inkscape:label="chaotikumlogo-orange"
     transform="matrix(1.3333333,0,0,-1.3333333,0,127.382)"><g
       id="g12"
       transform="translate(21.0229,81.7783)"><path
         d="M 0,0 -7.265,-7.269 V -60.754 L 0,-68.019 h 53.489 l 7.265,7.265 V -7.269 L 53.489,0 Z"
         style="fill:none;stroke:#ffffff;stroke-width:3;stroke-linecap:butt;stroke-linejoin:miter;stroke-miterlimit:10;stroke-dasharray:none;stroke-opacity:1"
         id="path14"
         inkscape:connector-curvature="0" /></g><path
       d="M 1.391,74.498 H 13.758 V 68.314 H 1.391 Z"
       style="fill:#ffffff;fill-opacity:1;fill-rule:evenodd;stroke:none"
       id="path16"
       inkscape:connector-curvature="0" /><path
       d="M 1.391,62.677 H 13.758 V 56.493 H 1.391 Z"
       style="fill:#ffffff;fill-opacity:1;fill-rule:evenodd;stroke:none"
       id="path18"
       inkscape:connector-curvature="0" /><path
       d="M 1.391,50.86 H 13.758 V 44.676 H 1.391 Z"
       style="fill:#ffffff;fill-opacity:1;fill-rule:evenodd;stroke:none"
       id="path20"
       inkscape:connector-curvature="0" /><path
       d="M 1.391,39.04 H 13.758 V 32.856 H 1.391 Z"
       style="fill:#ffffff;fill-opacity:1;fill-rule:evenodd;stroke:none"
       id="path22"
       inkscape:connector-curvature="0" /><path
       d="M 1.391,27.221 H 13.758 V 21.036 H 1.391 Z"
       style="fill:#ffffff;fill-opacity:1;fill-rule:evenodd;stroke:none"
       id="path24"
       inkscape:connector-curvature="0" /><path
       d="m 21.031,94.146 h 6.184 V 81.779 h -6.184 z"
       style="fill:#ffffff;fill-opacity:1;fill-rule:evenodd;stroke:none"
       id="path26"
       inkscape:connector-curvature="0" /><path
       d="m 32.848,94.146 h 6.184 V 81.779 h -6.184 z"
       style="fill:#ffffff;fill-opacity:1;fill-rule:evenodd;stroke:none"
       id="path28"
       inkscape:connector-curvature="0" /><path
       d="m 44.668,94.146 h 6.184 V 81.779 h -6.184 z"
       style="fill:#ffffff;fill-opacity:1;fill-rule:evenodd;stroke:none"
       id="path30"
       inkscape:connector-curvature="0" /><path
       d="m 56.484,94.146 h 6.184 V 81.779 h -6.184 z"
       style="fill:#ffffff;fill-opacity:1;fill-rule:evenodd;stroke:none"
       id="path32"
       inkscape:connector-curvature="0" /><path
       d="m 68.305,94.146 h 6.184 V 81.779 h -6.184 z"
       style="fill:#ffffff;fill-opacity:1;fill-rule:evenodd;stroke:none"
       id="path34"
       inkscape:connector-curvature="0" /><path
       d="M 81.777,74.498 H 94.144 V 68.314 H 81.777 Z"
       style="fill:#ffffff;fill-opacity:1;fill-rule:evenodd;stroke:none"
       id="path36"
       inkscape:connector-curvature="0" /><path
       d="M 81.777,62.677 H 94.144 V 56.493 H 81.777 Z"
       style="fill:#ffffff;fill-opacity:1;fill-rule:evenodd;stroke:none"
       id="path38"
       inkscape:connector-curvature="0" /><path
       d="M 81.777,50.86 H 94.144 V 44.676 H 81.777 Z"
       style="fill:#ffffff;fill-opacity:1;fill-rule:evenodd;stroke:none"
       id="path40"
       inkscape:connector-curvature="0" /><path
       d="M 81.777,39.04 H 94.144 V 32.856 H 81.777 Z"
       style="fill:#ffffff;fill-opacity:1;fill-rule:evenodd;stroke:none"
       id="path42"
       inkscape:connector-curvature="0" /><path
       d="M 81.777,27.221 H 94.144 V 21.036 H 81.777 Z"
       style="fill:#ffffff;fill-opacity:1;fill-rule:evenodd;stroke:none"
       id="path44"
       inkscape:connector-curvature="0" /><path
       d="m 21.031,13.76 h 6.184 V 1.393 h -6.184 z"
       style="fill:#ffffff;fill-opacity:1;fill-rule:evenodd;stroke:none"
       id="path46"
       inkscape:connector-curvature="0" /><path
       d="m 32.848,13.76 h 6.184 V 1.393 h -6.184 z"
       style="fill:#ffffff;fill-opacity:1;fill-rule:evenodd;stroke:none"
       id="path48"
       inkscape:connector-curvature="0" /><path
       d="m 44.668,13.76 h 6.184 V 1.393 h -6.184 z"
       style="fill:#ffffff;fill-opacity:1;fill-rule:evenodd;stroke:none"
       id="path50"
       inkscape:connector-curvature="0" /><path
       d="m 56.484,13.76 h 6.184 V 1.393 h -6.184 z"
       style="fill:#ffffff;fill-opacity:1;fill-rule:evenodd;stroke:none"
       id="path52"
       inkscape:connector-curvature="0" /><path
       d="m 68.305,13.76 h 6.184 V 1.393 h -6.184 z"
       style="fill:#ffffff;fill-opacity:1;fill-rule:evenodd;stroke:none"
       id="path54"
       inkscape:connector-curvature="0" /><g
       id="g56"
       transform="translate(26.2769,69.4775)"><path
         d="m 0,0 12.942,-12.941 v -2.973 L 0,-28.855 h -2.972 v 2.973 L 8.481,-14.425 -2.972,-2.972 V 0 Z"
         style="fill:#ffffff;fill-opacity:1;fill-rule:evenodd;stroke:none"
         id="path58"
         inkscape:connector-curvature="0" /></g><g
       id="g60"><g
         id="g62"
         clip-path="url(#clipPath66)"><g
           id="g68"
           transform="translate(52.4448,50.1025)"><path
             d="M 0,0 C 0,-1.023 0.219,-1.98 0.657,-2.878 1.094,-3.777 1.668,-4.57 2.379,-5.257 3.11,-5.925 3.942,-6.461 4.883,-6.855 5.844,-7.23 6.836,-7.418 7.856,-7.418 c 0.816,0 1.586,0.114 2.32,0.344 0.731,0.25 1.399,0.594 2,1.031 0.606,0.441 1.141,0.961 1.598,1.566 0.461,0.606 0.816,1.274 1.066,2.005 h 4.945 c -0.292,-1.418 -0.812,-2.735 -1.566,-3.946 -0.73,-1.187 -1.625,-2.234 -2.691,-3.128 -1.063,-0.879 -2.266,-1.567 -3.602,-2.067 -1.336,-0.504 -2.754,-0.754 -4.258,-0.754 -1.711,0 -3.328,0.324 -4.851,0.972 -1.524,0.645 -2.86,1.524 -4.008,2.63 -1.149,1.129 -2.066,2.441 -2.754,3.945 -0.668,1.504 -1.004,3.109 -1.004,4.82 v 9.895 c 0,1.711 0.336,3.32 1.004,4.82 0.688,1.504 1.605,2.809 2.754,3.914 1.148,1.129 2.484,2.016 4.008,2.664 1.523,0.645 3.14,0.969 4.851,0.969 1.504,0 2.922,-0.25 4.258,-0.75 1.336,-0.504 2.539,-1.203 3.602,-2.098 1.066,-0.878 1.961,-1.921 2.691,-3.132 0.754,-1.211 1.274,-2.516 1.566,-3.914 H 14.84 c -0.25,0.711 -0.605,1.367 -1.066,1.972 -0.457,0.606 -0.992,1.129 -1.598,1.567 -0.601,0.437 -1.269,0.781 -2,1.031 -0.734,0.254 -1.504,0.379 -2.32,0.379 -1.02,0 -2.012,-0.199 -2.973,-0.598 C 3.942,16.344 3.11,15.813 2.379,15.125 1.668,14.457 1.094,13.672 0.657,12.774 0.219,11.879 0,10.918 0,9.895 Z"
             style="fill:#ffffff;fill-opacity:1;fill-rule:evenodd;stroke:none"
             id="path70"
             inkscape:connector-curvature="0" /></g></g></g><g
       id="g72"><g
         id="g74"
         clip-path="url(#clipPath78)"><g
           id="g80"
           transform="translate(100.3281,38.3096)"><path
             d="m 0,0 v 33.356 l 4.082,0.703 V 22.383 c 0.762,0.293 1.567,0.512 2.414,0.656 0.879,0.176 1.742,0.266 2.59,0.266 1.813,0 3.32,-0.266 4.52,-0.789 1.199,-0.5 2.152,-1.215 2.851,-2.152 0.735,-0.907 1.246,-2.004 1.539,-3.293 0.289,-1.285 0.438,-2.703 0.438,-4.254 V 0 h -4.082 v 11.938 c 0,1.402 -0.102,2.605 -0.309,3.598 -0.176,0.996 -0.48,1.8 -0.922,2.414 -0.437,0.613 -1.023,1.054 -1.754,1.316 -0.73,0.293 -1.636,0.441 -2.722,0.441 -0.438,0 -0.891,-0.031 -1.36,-0.089 C 6.817,19.559 6.363,19.485 5.926,19.399 5.516,19.34 5.137,19.266 4.785,19.18 4.461,19.09 4.227,19.02 4.082,18.961 V 0 Z"
             style="fill:#ffffff;fill-opacity:1;fill-rule:evenodd;stroke:none"
             id="path82"
             inkscape:connector-curvature="0" /></g><g
           id="g84"
           transform="translate(133.1128,41.251)"><path
             d="M 0,0 C 0.965,0 1.813,0.013 2.547,0.044 3.305,0.102 3.934,0.187 4.434,0.306 V 7.109 C 4.141,7.254 3.657,7.372 2.985,7.461 2.34,7.579 1.551,7.638 0.614,7.638 0,7.638 -0.66,7.59 -1.359,7.504 -2.035,7.415 -2.664,7.227 -3.246,6.934 -3.804,6.668 -4.273,6.29 -4.652,5.793 -5.031,5.324 -5.222,4.695 -5.222,3.906 -5.222,2.441 -4.754,1.419 -3.82,0.832 -2.883,0.277 -1.609,0 0,0 m -0.351,20.45 c 1.64,0 3.015,-0.22 4.125,-0.657 1.14,-0.41 2.051,-1.012 2.722,-1.8 0.703,-0.763 1.2,-1.684 1.493,-2.766 0.293,-1.051 0.437,-2.223 0.437,-3.512 V -2.547 C 8.076,-2.605 7.578,-2.694 6.934,-2.809 6.321,-2.898 5.617,-2.984 4.828,-3.073 4.039,-3.159 3.176,-3.234 2.239,-3.293 1.332,-3.379 0.426,-3.426 -0.484,-3.426 c -1.285,0 -2.473,0.133 -3.555,0.396 -1.082,0.264 -2.019,0.675 -2.808,1.229 -0.789,0.586 -1.403,1.349 -1.844,2.281 -0.438,0.939 -0.656,2.064 -0.656,3.379 0,1.258 0.246,2.345 0.746,3.25 0.527,0.907 1.226,1.638 2.105,2.197 0.879,0.553 1.903,0.964 3.074,1.225 1.168,0.266 2.399,0.395 3.684,0.395 0.41,0 0.836,-0.028 1.273,-0.086 0.442,-0.031 0.848,-0.09 1.231,-0.175 0.41,-0.06 0.762,-0.118 1.051,-0.177 0.293,-0.057 0.5,-0.1 0.617,-0.133 v 1.142 c 0,0.675 -0.074,1.332 -0.219,1.977 -0.148,0.671 -0.41,1.256 -0.793,1.753 -0.379,0.527 -0.906,0.938 -1.578,1.231 -0.645,0.319 -1.492,0.483 -2.547,0.483 -1.344,0 -2.531,-0.105 -3.555,-0.308 C -5.254,16.458 -6,16.266 -6.496,16.062 l -0.484,3.379 c 0.527,0.235 1.406,0.454 2.637,0.657 1.226,0.235 2.558,0.352 3.992,0.352"
             style="fill:#ffffff;fill-opacity:1;fill-rule:evenodd;stroke:none"
             id="path86"
             inkscape:connector-curvature="0" /></g><g
           id="g88"
           transform="translate(168.4414,49.7207)"><path
             d="m 0,0 c 0,-1.813 -0.262,-3.454 -0.789,-4.914 -0.527,-1.465 -1.274,-2.724 -2.238,-3.778 -0.934,-1.051 -2.063,-1.871 -3.379,-2.457 -1.317,-0.555 -2.75,-0.832 -4.301,-0.832 -1.551,0 -2.984,0.277 -4.301,0.832 -1.316,0.586 -2.457,1.406 -3.422,2.457 -0.937,1.054 -1.668,2.313 -2.195,3.778 -0.527,1.46 -0.789,3.101 -0.789,4.914 0,1.785 0.262,3.41 0.789,4.871 0.527,1.492 1.258,2.765 2.195,3.82 0.965,1.051 2.106,1.855 3.422,2.414 1.317,0.582 2.75,0.875 4.301,0.875 1.551,0 2.984,-0.293 4.301,-0.875 1.316,-0.559 2.445,-1.363 3.379,-2.414 0.964,-1.055 1.711,-2.328 2.238,-3.82 C -0.262,3.41 0,1.785 0,0 m -4.253,0 c 0,2.574 -0.587,4.609 -1.759,6.101 -1.14,1.52 -2.707,2.281 -4.695,2.281 -1.988,0 -3.57,-0.761 -4.738,-2.281 C -16.586,4.609 -17.16,2.574 -17.16,0 c 0,-2.575 0.574,-4.622 1.715,-6.146 1.168,-1.492 2.75,-2.237 4.738,-2.237 1.988,0 3.555,0.745 4.695,2.237 1.172,1.524 1.759,3.571 1.759,6.146"
             style="fill:#ffffff;fill-opacity:1;fill-rule:evenodd;stroke:none"
             id="path90"
             inkscape:connector-curvature="0" /></g><g
           id="g92"
           transform="translate(178.0117,61.1304)"><path
             d="M 0,0 H 8.645 V -3.422 H 0 v -10.535 c 0,-1.141 0.086,-2.09 0.262,-2.852 0.175,-0.73 0.441,-1.316 0.793,-1.754 0.347,-0.41 0.789,-0.703 1.316,-0.879 0.524,-0.175 1.141,-0.261 1.84,-0.261 1.23,0 2.211,0.129 2.941,0.394 0.762,0.293 1.289,0.496 1.582,0.613 l 0.789,-3.378 c -0.41,-0.208 -1.125,-0.454 -2.152,-0.747 -1.023,-0.324 -2.191,-0.484 -3.508,-0.484 -1.55,0 -2.84,0.191 -3.863,0.57 -0.996,0.411 -1.801,1.012 -2.414,1.801 -0.613,0.789 -1.055,1.754 -1.316,2.895 -0.235,1.172 -0.352,2.519 -0.352,4.039 V 6.363 L 0,7.066 Z"
             style="fill:#ffffff;fill-opacity:1;fill-rule:evenodd;stroke:none"
             id="path94"
             inkscape:connector-curvature="0" /></g><path
           d="m 195.918,38.31 h -4.082 v 22.821 h 4.082 z m -2.063,26.945 c -0.73,0 -1.359,0.234 -1.886,0.703 -0.5,0.5 -0.746,1.156 -0.746,1.977 0,0.82 0.246,1.461 0.746,1.929 0.527,0.496 1.156,0.746 1.886,0.746 0.731,0 1.344,-0.25 1.844,-0.746 0.528,-0.468 0.789,-1.109 0.789,-1.929 0,-0.821 -0.261,-1.477 -0.789,-1.977 -0.5,-0.469 -1.113,-0.703 -1.844,-0.703"
           style="fill:#ffffff;fill-opacity:1;fill-rule:evenodd;stroke:none"
           id="path96"
           inkscape:connector-curvature="0" /><g
           id="g98"
           transform="translate(211.1914,50.8604)"><path
             d="m 0,0 c 0.879,-0.672 1.801,-1.508 2.766,-2.5 0.992,-0.996 1.961,-2.078 2.894,-3.25 0.965,-1.14 1.875,-2.308 2.723,-3.512 0.847,-1.167 1.566,-2.265 2.148,-3.289 H 5.75 c -0.617,1.024 -1.332,2.063 -2.152,3.118 -0.789,1.082 -1.621,2.105 -2.5,3.07 -0.879,0.996 -1.77,1.902 -2.68,2.723 -0.906,0.816 -1.77,1.504 -2.586,2.062 V -12.551 H -8.25 v 33.356 l 4.082,0.703 V 0.703 c 0.699,0.703 1.477,1.477 2.324,2.325 0.848,0.851 1.684,1.714 2.5,2.589 0.821,0.879 1.598,1.715 2.328,2.504 0.731,0.817 1.36,1.535 1.886,2.149 H 9.656 C 8.98,9.539 8.25,8.735 7.461,7.856 6.672,6.981 5.852,6.086 5.004,5.18 4.156,4.301 3.293,3.41 2.414,2.504 1.566,1.625 0.762,0.789 0,0"
             style="fill:#ffffff;fill-opacity:1;fill-rule:evenodd;stroke:none"
             id="path100"
             inkscape:connector-curvature="0" /></g><g
           id="g102"
           transform="translate(244.0195,38.9668)"><path
             d="m 0,0 c -0.937,-0.235 -2.18,-0.481 -3.73,-0.746 -1.52,-0.263 -3.293,-0.396 -5.309,-0.396 -1.758,0 -3.234,0.25 -4.434,0.746 -1.199,0.528 -2.168,1.258 -2.898,2.196 -0.731,0.937 -1.258,2.036 -1.578,3.293 -0.324,1.286 -0.485,2.707 -0.485,4.258 v 12.813 h 4.082 V 10.226 c 0,-2.778 0.438,-4.769 1.317,-5.968 0.879,-1.2 2.355,-1.797 4.433,-1.797 0.438,0 0.891,0.011 1.36,0.043 0.469,0.026 0.906,0.058 1.316,0.086 0.41,0.057 0.778,0.1 1.098,0.132 0.351,0.058 0.601,0.118 0.747,0.175 V 22.164 H 0 Z"
             style="fill:#ffffff;fill-opacity:1;fill-rule:evenodd;stroke:none"
             id="path104"
             inkscape:connector-curvature="0" /></g><g
           id="g106"
           transform="translate(251.043,60.4746)"><path
             d="m 0,0 c 0.934,0.234 2.164,0.48 3.688,0.746 1.55,0.261 3.332,0.394 5.351,0.394 1.465,0 2.691,-0.207 3.688,-0.613 0.996,-0.383 1.828,-0.953 2.5,-1.715 0.207,0.148 0.527,0.352 0.968,0.617 0.438,0.262 0.981,0.512 1.621,0.746 0.645,0.262 1.364,0.481 2.153,0.657 0.789,0.207 1.636,0.308 2.547,0.308 1.754,0 3.187,-0.266 4.3,-0.789 1.11,-0.5 1.973,-1.215 2.59,-2.152 0.641,-0.938 1.067,-2.047 1.27,-3.336 0.234,-1.285 0.351,-2.692 0.351,-4.211 v -12.817 h -4.082 v 11.938 c 0,1.344 -0.07,2.5 -0.218,3.465 -0.118,0.969 -0.364,1.773 -0.747,2.414 -0.351,0.644 -0.847,1.113 -1.492,1.406 -0.613,0.32 -1.418,0.484 -2.414,0.484 -1.375,0 -2.515,-0.191 -3.422,-0.57 -0.879,-0.351 -1.476,-0.676 -1.8,-0.969 0.234,-0.757 0.41,-1.593 0.527,-2.5 0.117,-0.906 0.176,-1.859 0.176,-2.851 v -12.817 h -4.082 v 11.938 c 0,1.344 -0.075,2.5 -0.219,3.465 -0.149,0.969 -0.41,1.773 -0.789,2.414 -0.352,0.644 -0.852,1.113 -1.492,1.406 -0.618,0.32 -1.407,0.484 -2.371,0.484 -0.411,0 -0.848,-0.015 -1.317,-0.046 C 6.816,-2.532 6.363,-2.575 5.926,-2.633 5.516,-2.665 5.133,-2.708 4.781,-2.766 4.434,-2.825 4.199,-2.868 4.082,-2.899 V -22.165 H 0 Z"
             style="fill:#ffffff;fill-opacity:1;fill-rule:evenodd;stroke:none"
             id="path108"
             inkscape:connector-curvature="0" /></g></g></g><g
       id="g110"><g
         id="g112"
         clip-path="url(#clipPath116)"><path
           d="M 45.434,28.342 H 74.293 V 24.221 H 45.434 Z"
           style="fill:#ffffff;fill-opacity:1;fill-rule:evenodd;stroke:none"
           id="path118"
           inkscape:connector-curvature="0" /></g></g></g></svg>